<?xml version="1.0" encoding="utf-8"?>
<!-- Generator: Adobe Illustrator 17.0.0, SVG Export Plug-In . SVG Version: 6.00 Build 0)  -->
<!DOCTYPE svg PUBLIC "-//W3C//DTD SVG 1.1//EN" "http://www.w3.org/Graphics/SVG/1.1/DTD/svg11.dtd">
<svg version="1.1" id="Layer_1" xmlns="http://www.w3.org/2000/svg" xmlns:xlink="http://www.w3.org/1999/xlink" x="0px" y="0px"
	 width="314.903px" height="89.161px" viewBox="0 0 314.903 89.161" enable-background="new 0 0 314.903 89.161"
	 xml:space="preserve">
<g>
	<text transform="matrix(1 0 0 1 8.2774 60.1357)"><tspan x="0" y="0" fill="#754935" font-family="'GreatVibes-Regular'" font-size="62.0972">Natural</tspan><tspan x="171.882" y="0" font-family="'GreatVibes-Regular'" font-size="62.0972"> </tspan><tspan x="187.964" y="0" fill="#C7AA76" font-family="'GreatVibes-Regular'" font-size="62.0972">Spa</tspan></text>
	<g>
		<g>
			<g>
				<g>
					<g>
						<path fill="#754935" d="M305.284,64.573c0.288-0.123-0.024-0.427-0.022-0.514C304.861,64.396,305.351,64.66,305.284,64.573z"
							/>
						<polygon fill="#754935" points="301.301,67.955 301.298,67.76 300.84,68.506 						"/>
						<path fill="#754935" d="M297.038,70.189c0.729,0.426,1.497-0.905,2.375-1.073l0.202,0.078l0.072-0.684
							C298.809,69.068,297.781,70.029,297.038,70.189z"/>
						<path fill="#754935" d="M294.078,69.955c0.262,0.184-0.393,0.446,0.573-0.17c-0.064-0.001-0.086-0.009-0.127-0.016
							C294.433,69.816,294.304,69.873,294.078,69.955z"/>
						<path fill="#754935" d="M294.524,69.769C294.964,69.53,294.128,69.702,294.524,69.769L294.524,69.769z"/>
						<path fill="#754935" d="M292.492,70.872l0.494-0.498c-0.195-0.091-0.742,0.118-0.595-0.081
							C291.836,70.696,292.029,70.787,292.492,70.872z"/>
						<path fill="#754935" d="M292.14,71.606l0.268-0.238C292.324,71.33,292.232,71.346,292.14,71.606z"/>
						<path fill="#754935" d="M292.975,70.865l-0.567,0.503c0.135,0.065,0.242,0.271,0.27-0.211
							C292.713,71.373,292.758,71.129,292.975,70.865z"/>
						<path fill="#754935" d="M293.395,70.793c0.403-0.013,0.883-0.125,0.384,0.374C294.892,70.551,294.501,70.178,293.395,70.793z"
							/>
						<path fill="#754935" d="M297.152,70.962l0.542-0.045l0.278-0.413C297.833,70.709,297.024,70.776,297.152,70.962z"/>
						<path fill="#754935" d="M288.607,72.216c0.021,0.155,0.362,0.293,0.483,0.453l0.378-0.355
							C289.202,72.332,288.725,72.411,288.607,72.216z"/>
						<path fill="#754935" d="M289.091,72.67l-0.576,0.507C289.132,72.966,289.194,72.809,289.091,72.67z"/>
						<polygon fill="#754935" points="292.361,72.376 293.229,71.377 292.152,72.479 						"/>
						<polygon fill="#754935" points="286.037,73.209 286.289,72.732 285.804,73.494 						"/>
						<path fill="#754935" d="M284.358,73.939c0.181-0.384-0.553-0.311-0.318-0.597c-0.442,0.226-0.744,0.635-1.038,0.947
							C283.352,74.065,283.755,73.915,284.358,73.939z"/>
						<path fill="#754935" d="M282.497,74.789c0.171-0.126,0.331-0.307,0.505-0.5C282.819,74.416,282.649,74.571,282.497,74.789z"/>
						<path fill="#754935" d="M287.333,73.562c-0.086-0.065-0.276-0.248-0.691-0.193l0.422,0.293
							C287.146,73.631,287.239,73.596,287.333,73.562z"/>
						<path fill="#754935" d="M287.079,73.67l-0.014-0.009c-0.293,0.103-0.496,0.174-0.584,0.205
							C286.556,73.841,286.736,73.782,287.079,73.67z"/>
						<path fill="#754935" d="M287.401,73.537c-0.025,0.009-0.043,0.016-0.068,0.025C287.374,73.591,287.395,73.598,287.401,73.537z
							"/>
						<path fill="#754935" d="M290.45,72.824c-0.296,0.398-1.018,1.01-0.078,0.981C290.539,73.407,290.002,73.424,290.45,72.824z"/>
						<path fill="#754935" d="M287.932,73.902l0.76-0.195c-0.058-0.099-0.25-0.199-0.098-0.387L287.932,73.902z"/>
						<polygon fill="#754935" points="287.629,74.167 287.932,73.902 287.651,73.974 						"/>
						<path fill="#754935" d="M283.879,74.755c-0.244,0.31-0.594,0.413-0.976,0.569c0.45-0.05,0.903-0.138,1.303-0.312
							C284.218,74.863,284.313,74.567,283.879,74.755z"/>
						<path fill="#754935" d="M285.445,74.263c-0.019,0.016-0.042,0.035-0.06,0.05C285.44,74.33,285.478,74.327,285.445,74.263z"/>
						<polygon fill="#754935" points="279.028,76.529 279.112,76.585 279.106,76.509 						"/>
						<path fill="#754935" d="M284.302,75.06c0.338-0.045,0.488-0.217,0.619-0.41c-0.217,0.132-0.452,0.255-0.715,0.362
							C284.201,75.079,284.21,75.119,284.302,75.06z"/>
						<path fill="#754935" d="M281.486,75.313c0.192,0.034,0.402,0.047,0.621,0.053C281.902,75.288,281.509,75.189,281.486,75.313z"
							/>
						<path fill="#754935" d="M285.24,74.243c0.013-0.012,0.024-0.025,0.04-0.036C285.146,74.161,285.174,74.198,285.24,74.243z"/>
						<path fill="#754935" d="M285.24,74.243c-0.137,0.12-0.226,0.269-0.319,0.406c0.177-0.106,0.335-0.218,0.464-0.337
							C285.336,74.3,285.282,74.272,285.24,74.243z"/>
						<path fill="#754935" d="M278.584,79.516c-0.042-0.384,0.712-0.987,1.567-0.818c0.642-0.511-0.218-1.608-1.039-2.114
							c0.026,0.173,0.073,0.325-0.596,0.78c0.314,0.128,1.775-0.025,1.255,0.513c-0.926,0.498-0.84,0.127-1.379,0.053
							c0.548,0.369-1.076,1.017-0.671,1.662l0.814-0.472C278.583,79.224,278.311,79.48,278.584,79.516z"/>
						<path fill="#754935" d="M280.513,76.189l0.285-0.14c-0.363,0.041-0.655-0.034-1.193-0.191c-0.44,0.34-0.503,0.514-0.5,0.651
							l1.492-0.408L280.513,76.189z"/>
						<path fill="#754935" d="M282.145,75.627c-0.097,0.482-0.768,0.883-0.179,1.188c0.882-0.306,0.511-0.536,0.98-0.878
							c-1.394,0.546,0.332-0.355-0.775-0.266c0.256-0.157,0.5-0.256,0.731-0.347c-0.273,0.03-0.54,0.045-0.796,0.042
							c0.016,0.006,0.027,0.01,0.041,0.015l0.006-0.003l0.001,0.007c0.078,0.032,0.109,0.057,0.03,0.049
							c-0.003,0.006-0.02,0.014-0.027,0.018c0.009,0.06,0,0.118-0.013,0.174c-0.439,0.044-0.1-0.086,0.013-0.174
							c-0.002-0.021,0.003-0.044-0.003-0.066l-0.007-0.003l-1.348,0.668C281.118,76.012,281.492,75.882,282.145,75.627z"/>
						<path fill="#754935" d="M289.994,74.982c-0.059-0.018-0.069-0.047-0.084-0.074C289.838,74.993,289.817,75.04,289.994,74.982z"
							/>
						<path fill="#754935" d="M289.31,74.972c0.08-0.096,0.099-0.289,0.45-0.38c0.34,0.005,0.079,0.191,0.149,0.315
							c0.16-0.182,0.579-0.576-0.129-0.506l-0.077,0.093c-0.628,0.088-1.557-0.123-1.48-0.217
							C288.534,74.572,288.785,74.771,289.31,74.972z"/>
						<path fill="#754935" d="M285.712,75.488l-1.098,0.661l0.725,0.115l-0.107-0.198C285.93,75.884,285.69,75.682,285.712,75.488z"
							/>
						<polygon fill="#754935" points="278.833,76.366 278.861,75.88 278.358,76.711 						"/>
						<polygon fill="#754935" points="277.293,76.851 277.246,76.454 276.897,76.79 						"/>
						<path fill="#754935" d="M185.1,78.598l-0.388,0.04C184.892,78.637,185.01,78.621,185.1,78.598z"/>
						<path fill="#754935" d="M187.748,79.139l0.102-0.179C187.707,79.041,187.641,79.109,187.748,79.139z"/>
						<path fill="#754935" d="M237.795,81.046c-0.525-0.391-1.099-0.987-1.052-0.54l0.148,0.44
							C237.269,80.883,237.554,80.943,237.795,81.046z"/>
						<path fill="#754935" d="M210.024,80.859l0.137,0.156c0.153-0.126,0.296-0.244,0.427-0.352
							C210.416,80.722,210.225,80.789,210.024,80.859z"/>
						<path fill="#754935" d="M209.366,82.572l-0.669-0.391C208.841,82.303,209.056,82.432,209.366,82.572z"/>
						<path fill="#754935" d="M170.542,76.465l-0.496,0.371C170.714,76.936,170.455,76.671,170.542,76.465z"/>
						<path fill="#754935" d="M261.057,80.215c-0.48-0.118-0.853-0.149-1.175-0.135C260.462,80.267,260.956,80.589,261.057,80.215z"
							/>
						<path fill="#754935" d="M187.019,74.279c-0.24,0.033-0.353,0.101-0.365,0.198C186.9,74.449,187.046,74.393,187.019,74.279z"/>
						<path fill="#754935" d="M258.559,80.227c0.085,0.034,0.167,0.047,0.253,0.075c0.327-0.109,0.658-0.204,1.07-0.221
							C259.453,79.94,258.976,79.878,258.559,80.227z"/>
						<path fill="#754935" d="M118.471,76.617c-0.041-0.008-0.087-0.003-0.126-0.016C118.35,76.661,118.401,76.649,118.471,76.617z"
							/>
						<path fill="#754935" d="M102.518,78.908c0.121-0.107,0.342-0.245,0.548-0.379C102.949,78.566,102.78,78.675,102.518,78.908z"
							/>
						<path fill="#754935" d="M270.927,78.189C271.257,78.093,270.971,78.132,270.927,78.189L270.927,78.189z"/>
						<path fill="#754935" d="M272.941,79.53c-0.062,0.062-0.103,0.134-0.09,0.234C272.857,79.656,272.89,79.582,272.941,79.53z"/>
						<path fill="#754935" d="M255.364,83.245c-0.01,0-0.019,0-0.03,0.001C255.444,83.323,255.425,83.308,255.364,83.245z"/>
						<path fill="#754935" d="M271.475,78.279c-0.138-0.026-0.292-0.04-0.457-0.039C271.094,78.26,271.233,78.274,271.475,78.279z"
							/>
						<path fill="#754935" d="M271.363,78.093c0.12-0.007,0.213-0.013,0.303-0.019C271.692,77.995,271.645,77.958,271.363,78.093z"
							/>
						<path fill="#754935" d="M270.464,78.308c0.191-0.046,0.374-0.062,0.553-0.067c-0.072-0.015-0.105-0.034-0.09-0.051
							C270.83,78.214,270.692,78.249,270.464,78.308z"/>
						<path fill="#754935" d="M146.193,72.449c-0.023-0.015-0.049-0.024-0.073-0.044C145.764,72.572,145.919,72.549,146.193,72.449z
							"/>
						<path fill="#754935" d="M228.43,85.023c0.017-0.003,0.027-0.014,0.042-0.018c-0.016-0.006-0.036-0.013-0.051-0.019
							L228.43,85.023z"/>
						<path fill="#754935" d="M227.135,85.233c0.587-0.488,0.885-0.384,1.286-0.246l-0.315-1.278L227.135,85.233z"/>
						<path fill="#754935" d="M178.728,77.53l0.796,0.54c-1.16,0.442-1.874,0.089-1.161,0.775c0.365-1.32,3.385,0.483,3.756-0.827
							l0.518,0.387c-0.161-0.044-0.202,0.03-0.361-0.013c0.989,0.848,1.008-0.808,2.405-0.344c0.48,0.198,0.791,0.458,0.42,0.551
							l1.176-0.115c0.319,0.089,0.195,0.305-0.123,0.217l1.718,0.224l-0.02,0.037c0.283-0.162,0.895-0.379,1.19-0.463
							c0.394,0.276-0.244,0.099-0.166,0.287l1.004-0.139c0.316,0.421-0.53,0.603-1.169,0.426c0.618,1.503,0.846-0.183,2.589,0.966
							l-0.921-0.005c0.424,0.868,1.171,0.73,2.085,1.398c-0.191-0.293-1.78-1.582-0.693-1.714c0.268,0.157,0.639,0.279,1.242,0.119
							c-0.088,0.475,0.474,0.464,1.152,0.569l-0.168,0.619c0.768-0.042,0.772-0.373,1.257-0.574c0.804,0.216,0.88,0.735,0.994,1.182
							c1.289,0.348-0.754-0.951,0.815-0.777c1.042,0.444,1.852,0.34,3.222,0.198c0.723,0.351-0.203,0.361,0.037,0.59l0.767-0.383
							c0.163,0.041,0.082,0.186,0.041,0.259c0.605-0.094,0.16-0.621,1.085-0.634c0.362-0.652,1.659,1.338,2.904,0.745
							c0.243,0.227-0.197,0.363-0.156,0.622c1.611-0.26,1.372-0.162,2.736-0.656l0.999,0.586c-0.707-0.6,0.383-1.001,1.327-1.322
							c-0.241-0.274-0.445-0.512-0.589-0.633l1.443-0.116c0.152,0.131-0.021,0.325-0.29,0.553c0.103-0.037,0.201-0.074,0.278-0.111
							c0.462,0.313,0.149,0.637-0.263,0.933l-0.442-0.471c-0.404,0.329-0.793,0.702-0.78,1.084c0.102-0.058,0.287-0.093,0.485-0.097
							c-0.106,0.09-0.179,0.174-0.147,0.243c0.037,0.074,0.205-0.042,0.458-0.167l0.209,0.756l0.12-0.268l1.77,0.713
							c1.422-0.525,2.708-1.404,4.821-1.409c-0.584,0.452-0.223,0.833-0.331,1.444c-0.482-0.73-1.652,0.047-2.716-0.238
							c0.555,0.148,0.39,0.423,0.232,0.505l2.011-0.317c-0.11,0.495,0.359,0.44,0.839,0.705c-0.253-1.039,1.528-0.487,2.351-0.698
							c0.009,0.34-0.221,0.658-1.173,0.462c0.97,0.876,1.511-1.003,2.473-0.241c-0.235-0.02-0.355-0.087-0.468,0.072
							c0.582-0.231,1.892,0.165,1.545,0.419l-0.235-0.021c1.544,0.306,4.757,0.477,5.062-0.34c0.006,0.111-0.297,1.002-0.407,1.164
							c0,0,0.759-0.646,1.518-1.291c0.751-0.66,1.502-1.319,1.502-1.319c-0.304,0.711,0.507,2.511-0.827,2.832
							c0.365,0.13,0.82,0.283,1.627,0.081c-0.248-0.122-0.555-1.097-0.203-1.14c0.893,0.878,0.628,0.48,1.759,1.253
							c-0.371-0.183,0.129-1.296,0.725-1.218c-0.105,0.165-0.02,1.132-0.248,1.236l1.566-1.018c-0.384,0.175-0.121,0.951,0.2,1.284
							c-0.145-0.226,1.303,0.072,1.71-0.023l-0.626-0.286c1.695,0.237,1.744-1.513,3.411-1.388
							c-0.208,0.224-0.548,1.409,0.306,1.585c0.414-0.545,1.804-2.728,3.267-3.165l0.279,0.331l1.127-0.367
							c-0.694,0.862-2.7,2.672-3.819,3.373c0.632,0.265,0.169,0.389,1.127,0.366c0.334,0.311-0.531,0.464-0.814,0.48l2.234,0.215
							c-0.093-0.673,1.711-0.662,1.624-1.223l-2.422,0.68c-0.085-0.671,1.414-1.898,2.973-1.769c0.4,0.27-0.293,1.195-0.26,1.419
							c0.205-0.23,1.492-0.427,1.638-0.282l-0.665,0.37c0.884,0.245,1.418-0.927,2.485-0.312c0.364,0.033,1.114,0.834,1.165,0.434
							c-0.622-0.749-0.797-3.119-0.428-3.705c0.124,0.048,1.899,0.679,2.329,1.046c0.623,0.584-0.828,1.458-0.3,1.959
							c0.014-0.184,0.334-0.42,0.468-0.497c0.388,0.141-0.131,0.586,0.694,0.449c0.103-0.69,1.686-0.056,0.361-0.602
							c0.796-0.249,0.866,0.082,1.814-0.012c-0.329-0.419,0.748-1.553,1.53-1.801c-0.034,0.176,0.164,0.389,0.259,0.486
							c1.649-0.026,2.553,0.122,4.087-0.021c0.159,0.149,0.922,0.266,0.64,0.592c0.208-0.144,0.383-0.396,0.854-0.464
							c0.989,0.484-1.046,0.207-0.262,0.833c0.013-0.405,1.164-0.666,1.802-1.008c-0.285-0.562-1.567,0.06-2.216,0.385
							c-0.101-0.854,0.97-1.809,2.484-2.437c1.217-0.401,0.618,0.456,0.818,0.304c2.378-0.219,1.765-1.765,3.803-1.464
							c0.86,0.382,0.224,1.048,0.462,1.397c-0.988,0.37-1.63-0.09-2.317,0.041l0.895,0.119c-0.296,0.227-0.96,0.467-1.357,0.371
							c0.363,0.188,1.368,0.056,2.519-0.104c1.145-0.194,2.427-0.455,3.381-0.418c0.287-0.242,0.803-0.538,0.495-0.696l-0.557,0.19
							c-0.611-0.318,0.95-0.805,0.188-0.857c0.698-0.467,1.452-1.063,2.56-1.103l0.34,0.546c-0.066-0.172-0.774-0.169-1.034,0.071
							c0.381-0.359,1.822,0.395,2.118-0.505l-0.842-0.223c0.683-0.493,1.446-1.36,2.423-1.411c-0.577-0.477-0.198,0.122-1.034-0.395
							c0.79,0.707-2.378,0.571-1.239,1.235c-0.873-0.639-1.249-0.009-2.3-0.527c0.072,0.192,0.401,0.313-0.407,0.376
							c-0.023,0.065-0.091,0.155-0.135,0.209c-0.025-0.002-0.034-0.002-0.056-0.004l0.049,0.015
							c-0.028,0.037-0.029,0.043,0.018,0.005c0.206,0.048,0.382,0.121,0.468,0.219c-0.292,0.533-1.557,0.776-1.936,1.098
							c-0.49,0.002,0.151-0.267-0.149-0.427l-0.567,0.482c-0.152-0.428-1.386-0.479-0.335-0.962l-0.994,0.182
							c-0.626-0.114-1.45-0.095-1.917,0.167c-0.486-0.023-1.11,0.675-0.756,0.264l-1.526,0.518l-0.031-0.109
							c-1.545,0.212-3.109,1.187-4.986,0.569c-0.512,0.17-1.043,0.368-1.933,0.338l-0.207-0.368
							c-0.661,0.215-2.058-0.241-2.317,0.19c-0.804-1.009-3.284,0.027-4.489-0.144l-0.024,0.508
							c-0.823-0.005-1.604,0.161-2.621,0.394l0.074,0.446c-0.877,0.394-2.277-0.239-3.672-0.223c0.095-0.171,0.449-0.123,0.7-0.018
							c-1.662-1.029-3.529,0.723-5.036-0.046c-0.382,0.148-0.654,0.082-0.915-0.042c0.035,0,0.067-0.007,0.094-0.02
							c-0.039-0.007-0.096-0.01-0.155-0.012c-0.164-0.084-0.333-0.18-0.516-0.259c0.154,0.115,0.302,0.211,0.433,0.258
							c-0.291-0.002-0.734,0.036-1.172,0.131l-0.166-0.488c-0.036,0.003-0.063,0.006-0.1,0.01c-0.416-0.194-0.351,0.214-0.138,0.585
							c-0.221,0.07-0.425,0.158-0.586,0.267c-0.31-0.79-1.152,0.216-1.581-0.63c-0.313,0.411-2.192,0.16-2.48,0.999
							c-0.008-0.112-0.132-0.173,0.103-0.164c-0.479-0.131-0.955-0.261-1.407-0.052l-0.161-0.625l-1.119,0.748
							c-0.615-0.417-0.861-0.651-0.188-1.077c-1.596,0.619-1.267,0.164-2.639,0.763l0.1-0.388c-0.468-0.03-1.267,0.426-1.518,0.073
							c-0.971-0.818-5.162-0.657-7.749-1.684c0.366,1.227-1.172-0.685-1.397,0.191c-0.119-0.295-0.469-0.502-0.005-0.678
							c-1.399,0.075-1.981-0.723-3.03-0.102c-0.115-0.296,0.35-0.359,0.235-0.54c-0.118,0.044-0.467,0.176-0.584-0.007
							c-0.114-0.182,0.233-0.201,0.465-0.289c-1.393-0.149-1.662,0.667-1.883,1.438c-0.648-0.486-1.007-0.49-1.598-0.055
							c-0.205-0.297-0.571-0.632,0.307-0.586c-0.481-0.116-2.906-0.854-3.06-0.231c-0.126-0.184-0.672-0.156-0.812-0.104
							c-1.083-0.226-1.169-0.302-2.249-0.431l0.279,0.155c-0.555,0.685-0.919,0.012-1.798-0.048l0.039-0.074
							c-1.878-0.901-0.904,0.122-2.737-0.868l0.019,0.492c-0.371,0.98-1.615-0.925-2.817-0.752l0.357,0.346
							c-0.685,0.23-1.461-1.705-2.054-1.948c-0.118-0.114,0.24-0.101,0.441-0.131c-1.504-0.909-0.33,0.577-1.567,0.485
							c-0.158-0.376,0.453-0.79-0.349-1.011c-0.352-0.348-2.575,0.617-3.563-0.239c0.195,0.304,0.388,0.608-0.212,0.69
							c-0.88-0.078-2.146-1.424-3.082-0.767c-0.096-0.091-0.125-0.167-0.117-0.231c-0.701,0.081-2.215-0.065-2.696,0.297
							c-0.304-1.746-4.259,0.019-3.968-1.475l-2.055-0.288l0.081-0.144c-1.288-0.333-1.815-0.047-2.336,0.233
							c-0.284-0.155-0.04-0.257-0.001-0.332c-1.856-0.637-2.064-0.594-3.787-0.109l-0.088-0.517
							c-0.477,0.212-2.652-1.209-4.626-0.906c0.027-0.053,0.079-0.143,0.239-0.19c-2.194,0.263-4.924-2.053-5.927-0.354
							l-1.457,0.282c1.799,0.346-0.359,0.748,0.353,1.13c-0.721,0.025-1.779-0.75-0.894-0.743l0.127,0.105
							c0.427-0.907-2.22-0.579-2.108-1.201c-3.589-0.315-7.069-1.085-10.473-1.235l0.364,0.746l-1.178-0.087
							c-0.305-0.182-0.401-0.588,0.443-0.526c-0.432-0.438-1.427,0.305-1.453,0.467c-1.648-0.321,0.664-0.843,0.158-0.868
							l-0.693,0.044l0.154,0.088c-0.566,0.29-0.619,0.607-1.633,0.555c-0.641-0.155-0.328-0.458-0.581-0.486
							c0.002-0.052-0.084-0.075-0.39-0.017l-1.5-0.047l0.605,0.571c-0.658,0.292-1.402-0.015-0.705,0.631
							c-1.025-1.038-5.568-0.169-6.202-0.412c-0.897,0.471-1.803,0.553-2.936,0.619c0.293,0.091,0.522,0.721-0.45,0.738
							c0.106-0.683-0.354-0.786-0.955-0.821c-0.6-0.019-1.336,0.028-1.797-0.396c0.789,0.522-2.75,0.554-1.507,1.291
							c-0.822,0.031-0.127-0.487-0.792-0.693c-0.922,0.427-1.998,0.502-3.136,0.633c-1.14,0.104-2.355,0.194-3.511,0.601
							c0.008,0.179,0.467,0.339,0.03,0.722l-1.471-0.529c-0.442,0.22-0.143,1.103-1.155,0.772c0.162,0.105,0.401,0.266,0.111,0.413
							c-0.597,0.07-1.189,0.179-1.776,0.314c-0.579,0.162-1.153,0.35-1.723,0.555c-1.149,0.384-2.244,0.939-3.356,1.44
							c-1.113,0.503-2.189,1.088-3.34,1.518c-1.112,0.512-2.301,0.88-3.554,1.177c0.739-0.057,0.378,0.206-0.043,0.483
							c0.321-0.103,0.218,0.376,0.396,0.546l-2.077,0.512c0.046,0.74-1.769,1.29-1.578,1.922l0.457-0.461
							c-0.253,1.092,1.912,0.682,2.335,1.556c0.125-0.628,0.83-0.662,1.534-0.794c0.719-0.115,1.424-0.345,1.786-1.21
							c0.384,0.013-0.092,0.402,0.171,0.511c0.124-0.535,0.486-0.83,1.311-1.071l-0.036,0.135c2.048-1.176,3.146-1.253,5.676-1.995
							l-0.356-0.365c0.551-0.156,0.71-0.075,1.004-0.05c0.348-0.916-1.495,0.558-1.236-0.397c0.526,0.286,1.463-0.065,2.393-0.364
							c0.919-0.323,1.831-0.581,2.243-0.121c0.836-0.249-0.41-0.448,0.429-0.698l0.308,0.216l0.102-0.43
							c0.57-0.108,0.948,0.164,1.036,0.399c-0.14,0.012-0.357,0.183-0.492,0.247c0.792,0.097,1.982-0.652,2.255-0.617l-0.857,0.032
							c2.233-0.913,5.174-1.084,7.365-2.053l-0.209-0.191c1.702-0.684,1.449,0.043,3.36-0.416l-0.064,0.062
							c0.362-0.273,0.874-0.427,1.412-0.458c-0.465,0.309,0.977,0.414,0.361,0.766c1.878-0.629,0.911-0.456,2.126-1.373l0.323,0.35
							c0.413-0.364,0.438-0.543,1.419-0.706c-0.788,0.372,0.659,0.522-0.217,1.003c2.084,0.686,3.025-0.951,4.003,0.195
							c0.924-1.053-1.798-0.513-1.274-0.745c-0.458-0.315,0.76-0.805,1.417-0.71c0.667,0.016,1.149,1.301,2.797,1.264
							c-0.164-0.003-0.176,0.075-0.34,0.072c0.616,0.253,1.216-0.341,1.97,0.091c0.436-0.614,0.985,0.05,1.126-0.739l-1.527,0.161
							c0.863-0.189,1.702-1.124,3.12-0.61c-0.117,0.155-0.549,0.349-0.844,0.455c0.409,0.249,0.808-0.124,1.231,0.132
							c-0.152,0.788-1.858,0.093-2.793,0.698c0.435,0.337,1.756-0.542,1.271,0.306c0.699-1.065,1.62,0.2,2.776-0.59l-0.096,0.471
							c0.18-0.071,0.559-0.274,0.885-0.241l-0.621,0.58c0.933-0.471,1.717,0.562,2.599,0.328c-1.816-0.093-0.372-0.595-1.121-0.986
							c2.294-0.5,1.212,1.309,3.731,1.279c-0.344,0.04-1.251-0.385-0.703-0.562c0.471,0.135,1.087,0.367,1.358,0.638
							c1.669,0.049-0.212-0.513,0.52-0.739c0.515,0.631,0.838-0.155,1.589-0.268l-0.042,0.481c1.866,0.498,0.606-0.963,2.28-0.401
							l-0.794,0.583l0.909-0.071l-0.243,0.525c1.011-0.295,1.303-0.156,2.232,0.105c-0.18-0.362,0.228-0.859,1.073-0.763
							c0.538,0.358-0.378,0.414,0.822,0.498c-0.308,0.265-0.648,0.603-1.111,0.095c-0.072,0.149-0.302,0.266-0.375,0.414
							c0.575,0.406,1.536,0.273,1.967,0.324c-0.163-0.039-0.358-0.09-0.45-0.172l1.812-0.436c0.247,0.218,0.012,0.332-0.221,0.443
							c0.356-0.002,0.628-0.188,1.147-0.156c-0.187,0.369-0.212,0.775-0.962,0.855l1.698-0.199c0.086,0.184,0.773,0.583,0.539,0.695
							c0.871,0.359,2.339-0.413,3.497,0.072c0.074-0.065,0.211-0.116,0.476-0.13c1.118,0.277,2.039,0.904,3.469,0.61l0.64,0.824
							c1.076,0.024-0.879-1.051,0.916-1.009c1.278-0.006,0.358,0.67,0.758,0.94c0.676-0.238,1.876-0.754,2.911,0.014
							C179.365,77.697,179.089,77.542,178.728,77.53z M191.745,79.703c-0.271,0.05-0.833,0.258-0.962-0.057
							C191.176,79.16,191.346,79.463,191.745,79.703z M211.812,82.073c-0.213,0.129-0.495,0.014-0.797-0.22
							C211.259,81.855,211.529,81.907,211.812,82.073z M267.314,79.325c-0.009,0.009-0.016,0.016-0.022,0.027
							C266.705,79.252,266.914,79.295,267.314,79.325z M268.494,79.3c0.102-0.09,0.082-0.154,0.021-0.21
							c-0.057,0.136-0.312,0.197-0.61,0.223C268.009,79.42,268.173,79.476,268.494,79.3z M142.486,69.144l0.234,0.124
							C142.19,69.411,142.339,69.285,142.486,69.144z"/>
						<path fill="#754935" d="M209.449,82.374c-0.059-0.092-0.065-0.184-0.068-0.276C209.269,82.162,209.252,82.254,209.449,82.374z
							"/>
						<path fill="#754935" d="M170.634,76.397l-0.039-0.012c-0.026,0.025-0.042,0.052-0.053,0.08L170.634,76.397z"/>
						<path fill="#754935" d="M250.726,85.457c-0.251-0.062-0.392-0.146-0.488-0.235C250.229,85.34,250.346,85.436,250.726,85.457z"
							/>
						<path fill="#754935" d="M274.332,77.188l-0.688,0.306c0.342-0.112,0.491-0.042,0.684-0.012
							C274.285,77.377,274.109,77.253,274.332,77.188z"/>
						<path fill="#754935" d="M281.403,78.321c0.088-0.089,0.223-0.076,0.31-0.166l-0.097-0.205
							C281.17,78.105,280.908,78.376,281.403,78.321z"/>
						<path fill="#754935" d="M275.388,78.573c0.157,0.379,0.582,0.128,1.073-0.076c-0.03,0.009-0.059,0.02-0.09,0.023
							C276.377,77.932,275.883,78.253,275.388,78.573z"/>
						<path fill="#754935" d="M276.576,78.453c0.153-0.059,0.31-0.11,0.469-0.131C277.046,78.088,276.842,78.326,276.576,78.453z"/>
						<path fill="#754935" d="M269.889,78.741c0.263,0.053,0.049-0.54,0.218-0.405C270.277,77.774,268.617,79.277,269.889,78.741z"
							/>
						<polygon fill="#754935" points="276.132,79.762 275.824,79.324 275.634,79.789 						"/>
						<path fill="#754935" d="M271.965,80.381l0.862-0.034c-0.031-0.079,0.064-0.149,0.185-0.212
							C272.496,80.223,271.914,80.24,271.965,80.381z"/>
						<path fill="#754935" d="M273.012,80.135c0.27-0.039,0.517-0.122,0.645-0.237C273.516,79.939,273.214,80.038,273.012,80.135z"
							/>
						<polygon fill="#754935" points="275.041,80.197 274.772,80.158 274.181,80.271 						"/>
						<path fill="#754935" d="M262.973,81.884l-0.896,0.283c-0.071,0.184,0.193,0.253,0.525,0.131
							C262.806,82.145,263.137,82.027,262.973,81.884z"/>
						<path fill="#754935" d="M265.959,82.81c-0.267-0.064-0.301-0.172-0.468-0.313l0.069,0.618L265.959,82.81z"/>
						<path fill="#754935" d="M263.283,83.371c-0.067,0.185-1.28,0.698-0.108,0.478C263.246,83.665,264.154,83.38,263.283,83.371z"
							/>
						<polygon fill="#754935" points="249.209,83.797 249.445,83.782 249.372,82.765 						"/>
						<path fill="#754935" d="M236.762,86.201c1.108,0.288,0.287-0.617,1.284-0.273c0.269-0.23-0.814-0.281-0.539-0.478
							C236.827,85.676,236.479,85.519,236.762,86.201z"/>
						<path fill="#754935" d="M237.507,85.449c0.109-0.036,0.224-0.08,0.348-0.141C237.659,85.364,237.565,85.409,237.507,85.449z"
							/>
						<polygon fill="#754935" points="99.959,79.931 99.23,80.186 99.819,80.189 						"/>
						<path fill="#754935" d="M99.242,81.361l-0.526-0.423l-0.011,0.726C98.824,81.546,99.053,81.316,99.242,81.361z"/>
						<path fill="#754935" d="M193.425,81.365l0.083-0.143c-0.075-0.187-0.236-0.231-0.557-0.321L193.425,81.365z"/>
						<polygon fill="#754935" points="184.107,79.055 184.266,79.098 184.074,78.464 						"/>
						<path fill="#754935" d="M176.098,78.337c0.317,0.078,0.717,0.018,1.035,0.101C176.414,78.414,176.138,77.601,176.098,78.337z"
							/>
					</g>
				</g>
			</g>
		</g>
	</g>
</g>
</svg>
